<mxfile host="65bd71144e">
    <diagram id="QY2RDY2Ul2jAR8ClIkrb" name="Page-1">
        <mxGraphModel dx="726" dy="346" grid="1" gridSize="10" guides="1" tooltips="1" connect="1" arrows="1" fold="1" page="1" pageScale="1" pageWidth="1169" pageHeight="827" math="0" shadow="0">
            <root>
                <mxCell id="0"/>
                <mxCell id="1" parent="0"/>
                <mxCell id="2" value="" style="rounded=0;whiteSpace=wrap;html=1;fillColor=none;strokeColor=#000000;strokeWidth=7;" parent="1" vertex="1">
                    <mxGeometry x="40" y="240" width="600" height="80" as="geometry"/>
                </mxCell>
                <mxCell id="7" value="ImgProc" style="rounded=0;whiteSpace=wrap;html=1;fillColor=#008a00;fontColor=#000000;strokeColor=#000000;strokeWidth=5;fontSize=17;" parent="1" vertex="1">
                    <mxGeometry x="230" y="240" width="100" height="80" as="geometry"/>
                </mxCell>
                <mxCell id="8" value="distanceSensor" style="rounded=0;whiteSpace=wrap;html=1;fillColor=#0050ef;fontColor=#000000;strokeColor=#000000;strokeWidth=5;fontSize=15;" parent="1" vertex="1">
                    <mxGeometry x="40" y="240" width="190" height="40" as="geometry"/>
                </mxCell>
                <mxCell id="9" value="FuzzyControl" style="rounded=0;whiteSpace=wrap;html=1;fillColor=#1ba1e2;fontColor=#000000;strokeColor=#000000;strokeWidth=5;fontSize=12;" parent="1" vertex="1">
                    <mxGeometry x="330" y="240" width="80" height="80" as="geometry"/>
                </mxCell>
                <mxCell id="10" value="driver" style="rounded=0;whiteSpace=wrap;html=1;fillColor=#e51400;fontColor=#000000;strokeColor=#000000;strokeWidth=5;fontSize=17;" parent="1" vertex="1">
                    <mxGeometry x="410" y="240" width="110" height="80" as="geometry"/>
                </mxCell>
                <mxCell id="31" value="tiempo máximo de ejecucion &#10;174 ms" style="text;strokeColor=#001DBC;fillColor=none;align=center;verticalAlign=middle;whiteSpace=wrap;rounded=0;fontColor=#000000;opacity=0;" parent="1" vertex="1">
                    <mxGeometry x="35" y="355" width="200" height="30" as="geometry"/>
                </mxCell>
                <mxCell id="32" value="tiempo mínimo de ejecucion&#10;9 ms" style="text;strokeColor=#001DBC;fillColor=none;align=center;verticalAlign=middle;whiteSpace=wrap;rounded=0;fontColor=#000000;opacity=0;" parent="1" vertex="1">
                    <mxGeometry x="40" y="410" width="175" height="30" as="geometry"/>
                </mxCell>
                <mxCell id="33" value="distanceSensor" style="rounded=0;whiteSpace=wrap;html=1;fillColor=#0050ef;fontColor=#000000;strokeColor=#000000;strokeWidth=5;" parent="1" vertex="1">
                    <mxGeometry x="40" y="280" width="90" height="40" as="geometry"/>
                </mxCell>
                <mxCell id="34" value="" style="shape=crossbar;whiteSpace=wrap;html=1;rounded=1;fillColor=#0050ef;fontColor=#ffffff;strokeColor=#001DBC;strokeWidth=3;" parent="1" vertex="1">
                    <mxGeometry x="40" y="335" width="190" height="20" as="geometry"/>
                </mxCell>
                <mxCell id="36" value="" style="shape=crossbar;whiteSpace=wrap;html=1;rounded=1;fillColor=#0050ef;fontColor=#ffffff;strokeColor=#001DBC;strokeWidth=3;" parent="1" vertex="1">
                    <mxGeometry x="40" y="390" width="90" height="20" as="geometry"/>
                </mxCell>
                <mxCell id="37" value="" style="shape=crossbar;whiteSpace=wrap;html=1;rounded=1;fillColor=#1ba1e2;fontColor=#ffffff;strokeColor=#006EAF;strokeWidth=3;" parent="1" vertex="1">
                    <mxGeometry x="330" y="335" width="80" height="20" as="geometry"/>
                </mxCell>
                <mxCell id="39" value="1.1 ms" style="text;html=1;align=center;verticalAlign=middle;resizable=0;points=[];autosize=1;strokeColor=none;fillColor=none;fontColor=#000000;" parent="1" vertex="1">
                    <mxGeometry x="345" y="360" width="50" height="20" as="geometry"/>
                </mxCell>
                <mxCell id="40" value="" style="shape=crossbar;whiteSpace=wrap;html=1;rounded=1;fillColor=#008a00;fontColor=#ffffff;strokeColor=#005700;strokeWidth=3;" parent="1" vertex="1">
                    <mxGeometry x="230" y="380" width="100" height="20" as="geometry"/>
                </mxCell>
                <mxCell id="41" value="25.3 ms" style="text;html=1;align=center;verticalAlign=middle;resizable=0;points=[];autosize=1;strokeColor=none;fillColor=none;fontColor=#000000;strokeWidth=1;" parent="1" vertex="1">
                    <mxGeometry x="250" y="404" width="60" height="20" as="geometry"/>
                </mxCell>
                <mxCell id="44" value="" style="shape=crossbar;whiteSpace=wrap;html=1;rounded=1;fillColor=#e51400;fontColor=#ffffff;strokeColor=#B20000;strokeWidth=3;" parent="1" vertex="1">
                    <mxGeometry x="410" y="379" width="110" height="20" as="geometry"/>
                </mxCell>
                <mxCell id="45" value="26.2 ms" style="text;html=1;align=center;verticalAlign=middle;resizable=0;points=[];autosize=1;strokeColor=none;fillColor=none;fontColor=#000000;" parent="1" vertex="1">
                    <mxGeometry x="450" y="399" width="60" height="20" as="geometry"/>
                </mxCell>
                <mxCell id="46" value="" style="shape=crossbar;whiteSpace=wrap;html=1;rounded=1;fillColor=#f0a30a;fontColor=#000000;strokeColor=#BD7000;strokeWidth=3;" parent="1" vertex="1">
                    <mxGeometry x="40" y="440" width="480" height="20" as="geometry"/>
                </mxCell>
                <mxCell id="47" value="222 ms" style="text;html=1;align=center;verticalAlign=middle;whiteSpace=wrap;rounded=0;fontColor=#000000;" parent="1" vertex="1">
                    <mxGeometry x="250" y="460" width="60" height="30" as="geometry"/>
                </mxCell>
                <mxCell id="51" value="" style="shape=crossbar;whiteSpace=wrap;html=1;rounded=1;fillColor=#000000;fontColor=#000000;strokeColor=#000000;strokeWidth=3;" parent="1" vertex="1">
                    <mxGeometry x="40" y="510" width="600" height="20" as="geometry"/>
                </mxCell>
                <mxCell id="52" value="250 ms" style="text;html=1;strokeColor=none;fillColor=none;align=center;verticalAlign=middle;whiteSpace=wrap;rounded=0;fontColor=#000000;opacity=0;" parent="1" vertex="1">
                    <mxGeometry x="310" y="530" width="60" height="30" as="geometry"/>
                </mxCell>
            </root>
        </mxGraphModel>
    </diagram>
</mxfile>